<svg xmlns="http://www.w3.org/2000/svg" viewBox="0 0 66.02 16.96"><defs><style>.cls-1{fill:#7a00e6;}</style></defs><title>Asset 5</title><g id="Layer_2" data-name="Layer 2"><g id="MY"><g id="Sanofi_RGB" data-name="Sanofi RGB"><path d="M23.44,5.42a12.72,12.72,0,0,0-4.7-.88,5.83,5.83,0,0,0-6.14,6.21c0,3.84,2.2,6.21,6.09,6.21a11.73,11.73,0,0,0,4.75-1,.9.9,0,0,0,.6-.95V6.38A.89.89,0,0,0,23.44,5.42Zm-2.51,7.81c0,.36-.19.53-.59.65a5.86,5.86,0,0,1-1.63.21c-1.53,0-3-.91-3-3.34s1.43-3.35,3-3.35a5.49,5.49,0,0,1,1.63.22c.4.12.59.28.59.64Z"/><path d="M3.33,8.53c0-.73.74-1.2,2-1.2a7.42,7.42,0,0,1,3.6,1.08.69.69,0,0,0,.36.09.61.61,0,0,0,.53-.33l.74-1.58a.89.89,0,0,0,.09-.4.56.56,0,0,0-.28-.48,10,10,0,0,0-5-1.27C2.23,4.44.18,6.16.18,8.74c0,5.07,7.69,3.11,7.69,6.62a2.75,2.75,0,0,1-.14.88.4.4,0,0,0,0,.15.32.32,0,0,0,.36.33h2.15c.36,0,.5-.12.62-.48A4.51,4.51,0,0,0,11,14.88C11,9.46,3.33,10.76,3.33,8.53Z"/><path d="M32.35,4.54a14.44,14.44,0,0,0-4.8.86.91.91,0,0,0-.6.95v9.89a.46.46,0,0,0,.48.48h2.15a.45.45,0,0,0,.48-.48v-8c0-.36.19-.53.57-.62a6.53,6.53,0,0,1,1.77-.2c1.29,0,2.32.6,2.32,2v6.81a.45.45,0,0,0,.48.48h2.14a.45.45,0,0,0,.48-.48V9C37.82,6.11,36,4.54,32.35,4.54Z"/><path d="M46,4.54c-3.59,0-5.93,2.6-5.93,6.21A5.83,5.83,0,0,0,46.2,17c3.59,0,5.93-2.61,5.93-6.21S49.79,4.54,46,4.54Zm.17,9.55c-1.77,0-2.94-1.14-2.94-3.34S44.44,7.4,46,7.4C47.81,7.4,49,8.55,49,10.75S47.81,14.09,46.21,14.09Z"/><path d="M65.43,4.78H63.28a.45.45,0,0,0-.47.47v11a.45.45,0,0,0,.47.48h2.15a.45.45,0,0,0,.48-.48v-11A.45.45,0,0,0,65.43,4.78Z"/><path d="M60.85.17A6.3,6.3,0,0,0,59.34,0c-3,0-4.89,1.58-4.89,5V16.24a.45.45,0,0,0,.47.48h2.13a.45.45,0,0,0,.48-.48V7.4h3A.44.44,0,0,0,61,6.93V5.28a.45.45,0,0,0-.48-.5h-3V4.51c0-1.31.57-2,1.88-2,.48,0,1,.12,1.18.12s.4-.17.45-.45L61.28,1a1.75,1.75,0,0,0,0-.32C61.32.38,61.18.24,60.85.17Z"/><path class="cls-1" d="M1.62,13.66A1.52,1.52,0,0,0,0,15.31,1.56,1.56,0,0,0,1.7,17a1.53,1.53,0,0,0,1.62-1.65A1.55,1.55,0,0,0,1.62,13.66Z"/><path class="cls-1" d="M64.32,0A1.53,1.53,0,0,0,62.7,1.65a1.66,1.66,0,0,0,3.32,0A1.55,1.55,0,0,0,64.32,0Z"/></g></g></g></svg>