<svg xmlns="http://www.w3.org/2000/svg" xmlns:xlink="http://www.w3.org/1999/xlink" viewBox="0 0 148.52 54.25"><defs><style>.cls-1{fill:#daad78;}.cls-2{fill:#8a8a94;}.cls-3{fill:#7f99a5;}.cls-4{fill:#75a8b5;}.cls-5{fill:#69b7c6;}.cls-6{fill:#5dc6d7;}.cls-7{fill:#52d5e6;}.cls-8{fill:#46e4f8;}.cls-9{fill:url(#linear-gradient);}.cls-10{fill:url(#linear-gradient-2);}.cls-11{fill:url(#linear-gradient-3);}.cls-12{fill:url(#linear-gradient-4);}.cls-13{fill:url(#linear-gradient-5);}.cls-14{fill:url(#linear-gradient-6);}.cls-15{fill:url(#linear-gradient-7);}.cls-16{fill:url(#linear-gradient-8);}.cls-17{fill:url(#linear-gradient-9);}.cls-18{fill:url(#linear-gradient-10);}.cls-19{fill:url(#linear-gradient-11);}.cls-20{fill:url(#linear-gradient-12);}</style><linearGradient id="linear-gradient" x1="64.81" y1="14.53" x2="145.61" y2="19.47" gradientUnits="userSpaceOnUse"><stop offset="0" stop-color="#8a8a8a"/><stop offset="0.53" stop-color="#c6c6c6"/><stop offset="1" stop-color="#989898"/></linearGradient><linearGradient id="linear-gradient-2" x1="64.83" y1="14.2" x2="145.63" y2="19.15" xlink:href="#linear-gradient"/><linearGradient id="linear-gradient-3" x1="64.86" y1="13.68" x2="145.66" y2="18.63" xlink:href="#linear-gradient"/><linearGradient id="linear-gradient-4" x1="64.07" y1="26.57" x2="144.88" y2="31.52" xlink:href="#linear-gradient"/><linearGradient id="linear-gradient-5" x1="64.11" y1="25.94" x2="144.91" y2="30.88" xlink:href="#linear-gradient"/><linearGradient id="linear-gradient-6" x1="64.14" y1="25.48" x2="144.94" y2="30.43" xlink:href="#linear-gradient"/><linearGradient id="linear-gradient-7" x1="64.17" y1="24.87" x2="144.98" y2="29.81" xlink:href="#linear-gradient"/><linearGradient id="linear-gradient-8" x1="64.22" y1="24.08" x2="145.03" y2="29.02" xlink:href="#linear-gradient"/><linearGradient id="linear-gradient-9" x1="64.25" y1="23.7" x2="145.05" y2="28.65" xlink:href="#linear-gradient"/><linearGradient id="linear-gradient-10" x1="64.29" y1="23" x2="145.09" y2="27.94" xlink:href="#linear-gradient"/><linearGradient id="linear-gradient-11" x1="64.32" y1="22.54" x2="145.12" y2="27.49" xlink:href="#linear-gradient"/><linearGradient id="linear-gradient-12" x1="64.36" y1="21.78" x2="145.17" y2="26.73" xlink:href="#linear-gradient"/></defs><title>Asset 6</title><g id="Layer_2" data-name="Layer 2"><g id="MY"><polygon class="cls-1" points="63.54 37.29 64.07 37.29 64.07 40.41 63.54 40.41 63.54 40.94 65.26 40.94 65.26 40.41 64.73 40.41 64.73 37.29 65.26 37.29 65.26 36.76 63.54 36.76 63.54 37.29"/><path class="cls-1" d="M67.9,37.69a1.3,1.3,0,0,0-.55.12,2.25,2.25,0,0,0-.42.24v-.28H66.3v3.17h.63V38.63a3.38,3.38,0,0,1,.41-.24,1,1,0,0,1,.72,0,.39.39,0,0,1,.17.14.66.66,0,0,1,.08.27,2.38,2.38,0,0,1,0,.39v1.79H69v-2a1.34,1.34,0,0,0-.28-.89A1,1,0,0,0,67.9,37.69Z"/><path class="cls-1" d="M70.76,36.9h-.63v.87h-.35v.55h.35v1.56a1.16,1.16,0,0,0,.26.85,1,1,0,0,0,.75.27l.31,0a1.65,1.65,0,0,0,.32-.06h0v-.57h-.11l-.19.06-.25,0a.71.71,0,0,1-.29,0,.32.32,0,0,1-.14-.14.48.48,0,0,1-.07-.23,3.56,3.56,0,0,1,0-.37V38.32h1.06v-.55H70.76Z"/><path class="cls-1" d="M73.85,37.69a1.35,1.35,0,0,0-1.07.45,1.76,1.76,0,0,0-.4,1.22,1.72,1.72,0,0,0,.4,1.21,1.49,1.49,0,0,0,2.13,0,1.72,1.72,0,0,0,.4-1.21,1.76,1.76,0,0,0-.4-1.22A1.34,1.34,0,0,0,73.85,37.69Zm-.6.83a.79.79,0,0,1,1.19,0,1.69,1.69,0,0,1,0,1.67.79.79,0,0,1-1.19,0,1.32,1.32,0,0,1-.22-.83A1.3,1.3,0,0,1,73.25,38.52Z"/><path class="cls-1" d="M79.15,36.9h-.63v.87h-.35v.55h.35v1.56a1.2,1.2,0,0,0,.26.85,1,1,0,0,0,.75.27l.31,0a1.61,1.61,0,0,0,.33-.06h0v-.57H80.1l-.19.06a1.07,1.07,0,0,1-.25,0,.71.71,0,0,1-.29,0,.38.38,0,0,1-.14-.14.62.62,0,0,1-.07-.23,3.56,3.56,0,0,1,0-.37V38.32h1.06v-.55H79.15Z"/><path class="cls-1" d="M82.58,37.69a1.29,1.29,0,0,0-.54.12,2,2,0,0,0-.42.24V36.58H81v4.36h.63V38.63a2.75,2.75,0,0,1,.41-.24,1,1,0,0,1,.72,0,.39.39,0,0,1,.17.14.66.66,0,0,1,.08.27,2.42,2.42,0,0,1,0,.39v1.79h.64v-2a1.34,1.34,0,0,0-.28-.89A1,1,0,0,0,82.58,37.69Z"/><path class="cls-1" d="M86.13,37.69a1.44,1.44,0,0,0-1.12.46,1.72,1.72,0,0,0-.42,1.22A1.62,1.62,0,0,0,85,40.58a1.69,1.69,0,0,0,1.23.43,1.85,1.85,0,0,0,.58-.08,3.8,3.8,0,0,0,.54-.18l0,0v-.65h-.12a1.76,1.76,0,0,1-1.45.29.85.85,0,0,1-.53-.5,1.07,1.07,0,0,1-.08-.41h2.24v-.34a1.48,1.48,0,0,0-.35-1.06A1.3,1.3,0,0,0,86.13,37.69Zm-.64.77a.82.82,0,0,1,.61-.23.74.74,0,0,1,.57.2.84.84,0,0,1,.18.53H85.24A.83.83,0,0,1,85.49,38.46Z"/><path class="cls-1" d="M92.25,37.69a1.33,1.33,0,0,0-.55.12,1.91,1.91,0,0,0-.41.24V36.58h-.64v4.36h.64V38.63a2.65,2.65,0,0,1,.4-.24,1,1,0,0,1,.72,0,.34.34,0,0,1,.17.14.85.85,0,0,1,.09.27c0,.12,0,.25,0,.39v1.79h.63v-2a1.33,1.33,0,0,0-.27-.89A1,1,0,0,0,92.25,37.69Z"/><path class="cls-1" d="M95.79,37.69a1.43,1.43,0,0,0-1.11.46,1.73,1.73,0,0,0-.43,1.22,1.58,1.58,0,0,0,.45,1.21,1.65,1.65,0,0,0,1.22.43,1.91,1.91,0,0,0,.59-.08,3.31,3.31,0,0,0,.53-.18l0,0v-.65H97a1.26,1.26,0,0,1-.43.23,1.49,1.49,0,0,1-1,.06.92.92,0,0,1-.32-.18,1.07,1.07,0,0,1-.22-.32,1.3,1.3,0,0,1-.07-.41h2.24v-.34a1.52,1.52,0,0,0-.35-1.06A1.3,1.3,0,0,0,95.79,37.69Zm-.64.77a.85.85,0,0,1,.62-.23.73.73,0,0,1,.56.2.79.79,0,0,1,.19.53H94.9A.88.88,0,0,1,95.15,38.46Z"/><path class="cls-1" d="M100.19,38a1.27,1.27,0,0,0-.44-.2,3.34,3.34,0,0,0-1.14,0l-.44.09h0v.63h.1l.51-.15a2.17,2.17,0,0,1,.75,0,.85.85,0,0,1,.24.08.46.46,0,0,1,.15.16.48.48,0,0,1,.05.26v0l-.78.06a2.17,2.17,0,0,0-.69.18.91.91,0,0,0-.6,1,1,1,0,0,0,.3.74,1,1,0,0,0,.74.28,1.59,1.59,0,0,0,.4,0,1.85,1.85,0,0,0,.31-.11,1.18,1.18,0,0,0,.23-.14l.09-.06v.27h.63V38.81a1.35,1.35,0,0,0-.09-.52A.93.93,0,0,0,100.19,38Zm-.26,1.39v.76a1.6,1.6,0,0,1-.38.23,1.15,1.15,0,0,1-.46.1.67.67,0,0,1-.45-.12A.44.44,0,0,1,98.5,40a.42.42,0,0,1,.12-.32.88.88,0,0,1,.33-.18,3.49,3.49,0,0,1,.5-.08Z"/><path class="cls-1" d="M103.5,37.78h-.2a1.25,1.25,0,0,0-.5.11,2.18,2.18,0,0,0-.46.28v-.39h-.63v3.17h.63V38.75a2.13,2.13,0,0,1,.39-.25,1,1,0,0,1,.44-.1h.25l.22,0h.09v-.63h0Z"/><path class="cls-1" d="M105,36.9h-.63v.87H104v.55h.35v1.56a1.16,1.16,0,0,0,.26.85,1,1,0,0,0,.75.27l.31,0a1.65,1.65,0,0,0,.32-.06h0v-.57H106l-.19.06-.25,0a.71.71,0,0,1-.29,0,.32.32,0,0,1-.14-.14A.48.48,0,0,1,105,40a3.56,3.56,0,0,1,0-.37V38.32h1.06v-.55H105Z"/><path class="cls-1" d="M110.35,37.69a1.35,1.35,0,0,0-1.07.45,1.81,1.81,0,0,0-.4,1.22,1.76,1.76,0,0,0,.4,1.21,1.35,1.35,0,0,0,1.07.45,1.37,1.37,0,0,0,1.07-.45,1.76,1.76,0,0,0,.39-1.21,1.81,1.81,0,0,0-.39-1.22A1.37,1.37,0,0,0,110.35,37.69Zm-.6.83a.72.72,0,0,1,.6-.27.73.73,0,0,1,.6.27,1.69,1.69,0,0,1,0,1.67.73.73,0,0,1-.6.27.72.72,0,0,1-.6-.27,1.39,1.39,0,0,1-.22-.83A1.3,1.3,0,0,1,109.75,38.52Z"/><path class="cls-1" d="M114.22,36.57a1.51,1.51,0,0,0-.31,0,1.06,1.06,0,0,0-.83.31,1.23,1.23,0,0,0-.28.87v0h-.35v.55h.35v2.62h.63V38.32h.91v-.55h-.93v0a.74.74,0,0,1,.13-.49.66.66,0,0,1,.44-.12,1,1,0,0,1,.23,0l.21,0h.11v-.58h0Z"/><rect class="cls-1" x="117.26" y="37.77" width="0.63" height="3.17"/><rect class="cls-1" x="117.23" y="36.73" width="0.7" height="0.65"/><path class="cls-1" d="M120.66,37.69a1.33,1.33,0,0,0-.55.12,1.91,1.91,0,0,0-.41.24v-.28h-.63v3.17h.63V38.63a3.26,3.26,0,0,1,.4-.24,1,1,0,0,1,.73,0,.39.39,0,0,1,.17.14.86.86,0,0,1,.08.27,2.42,2.42,0,0,1,0,.39v1.79h.64v-2a1.34,1.34,0,0,0-.28-.89A1,1,0,0,0,120.66,37.69Z"/><path class="cls-1" d="M124.48,37.69a1.3,1.3,0,0,0-.55.12,2.25,2.25,0,0,0-.42.24v-.28h-.63v3.17h.63V38.63a3.38,3.38,0,0,1,.41-.24,1,1,0,0,1,.72,0,.34.34,0,0,1,.17.14.66.66,0,0,1,.08.27,2.38,2.38,0,0,1,0,.39v1.79h.63v-2a1.33,1.33,0,0,0-.27-.89A1,1,0,0,0,124.48,37.69Z"/><path class="cls-1" d="M128,37.69a1.35,1.35,0,0,0-1.07.45,1.81,1.81,0,0,0-.4,1.22,1.76,1.76,0,0,0,.4,1.21A1.35,1.35,0,0,0,128,41a1.37,1.37,0,0,0,1.07-.45,1.76,1.76,0,0,0,.39-1.21,1.81,1.81,0,0,0-.39-1.22A1.37,1.37,0,0,0,128,37.69Zm-.6.83a.72.72,0,0,1,.6-.27.73.73,0,0,1,.6.27,1.37,1.37,0,0,1,.21.84,1.29,1.29,0,0,1-.22.83.79.79,0,0,1-1.19,0,1.32,1.32,0,0,1-.22-.83A1.3,1.3,0,0,1,127.35,38.52Z"/><polygon class="cls-1" points="131.55 40.09 130.65 37.77 129.96 37.77 131.22 40.9 131.23 40.94 131.83 40.94 133.11 37.77 132.44 37.77 131.55 40.09"/><path class="cls-1" d="M135.91,38a1.22,1.22,0,0,0-.43-.2,3.39,3.39,0,0,0-1.15,0l-.43.09h-.05v.63H134l.5-.15a2.17,2.17,0,0,1,.75,0,.67.67,0,0,1,.24.08.41.41,0,0,1,.16.16.6.6,0,0,1,0,.26v0l-.78.06a2.17,2.17,0,0,0-.69.18,1.06,1.06,0,0,0-.45.35,1.1,1.1,0,0,0,.15,1.34,1,1,0,0,0,.74.28,1.64,1.64,0,0,0,.4,0,1.46,1.46,0,0,0,.3-.11,1,1,0,0,0,.24-.14l.09-.06v.27h.63V38.81a1.18,1.18,0,0,0-.1-.52A.84.84,0,0,0,135.91,38Zm-.25,1.39v.76a1.83,1.83,0,0,1-.38.23,1.2,1.2,0,0,1-.47.1.66.66,0,0,1-.44-.12.41.41,0,0,1-.14-.35.42.42,0,0,1,.12-.32.75.75,0,0,1,.33-.18,3.32,3.32,0,0,1,.49-.08Z"/><path class="cls-1" d="M138.08,36.9h-.63v.87h-.35v.55h.35v1.56a1.16,1.16,0,0,0,.26.85,1,1,0,0,0,.75.27l.31,0a1.52,1.52,0,0,0,.32-.06h0v-.57H139l-.19.06a1.07,1.07,0,0,1-.25,0,.71.71,0,0,1-.29,0,.32.32,0,0,1-.14-.14.62.62,0,0,1-.07-.23,3.56,3.56,0,0,1,0-.37V38.32h1.06v-.55h-1.06Z"/><rect class="cls-1" x="139.89" y="36.73" width="0.7" height="0.65"/><rect class="cls-1" x="139.92" y="37.77" width="0.63" height="3.17"/><path class="cls-1" d="M143,37.69a1.36,1.36,0,0,0-1.07.45,1.81,1.81,0,0,0-.39,1.22,1.76,1.76,0,0,0,.39,1.21,1.5,1.5,0,0,0,2.14,0,1.76,1.76,0,0,0,.4-1.21,1.81,1.81,0,0,0-.4-1.22A1.37,1.37,0,0,0,143,37.69Zm-.6.83a.8.8,0,0,1,1.2,0,1.3,1.3,0,0,1,.22.84,1.35,1.35,0,0,1-.22.83.8.8,0,0,1-1.2,0,1.39,1.39,0,0,1-.22-.83A1.36,1.36,0,0,1,142.38,38.52Z"/><path class="cls-1" d="M147.79,38a1,1,0,0,0-.79-.32,1.3,1.3,0,0,0-.55.12,2.25,2.25,0,0,0-.42.24v-.28h-.63v3.17H146V38.63a3.38,3.38,0,0,1,.41-.24,1,1,0,0,1,.72,0,.39.39,0,0,1,.17.14.66.66,0,0,1,.08.27,2.38,2.38,0,0,1,0,.39v1.79h.63v-2A1.34,1.34,0,0,0,147.79,38Z"/><path class="cls-2" d="M29.18,54.25c-2.09,0-4.26-1.19-7.36-4A63.76,63.76,0,0,1,6,28.42l-.23-.5C3.47,22.74-.44,14.07,0,7.22A7.13,7.13,0,0,1,3.1,1.44c2.95-1.95,8-1.92,13.84.09C27,5,30.37,5.91,34.89,5.74c2.57-.1,5.09-1.3,7.53-2.46,4.23-2,8.22-3.91,11.33.77,4.12,6.17-6.67,33.34-14.28,42.51-4.42,5.33-7.2,7.48-9.9,7.68ZM8.81.59A9.66,9.66,0,0,0,3.43,1.93,6.56,6.56,0,0,0,.63,7.26C.16,14,4,22.55,6.34,27.67l.23.5A63.15,63.15,0,0,0,22.22,49.82c3.16,2.86,5.28,4,7.31,3.82,2.52-.18,5.18-2.27,9.49-7.46,7.33-8.83,18.15-35.93,14.24-41.81C50.43.12,46.84,1.83,42.68,3.81,40.18,5,37.61,6.23,34.91,6.33c-4.61.17-8-.75-18.16-4.23A24.83,24.83,0,0,0,8.81.59Z"/><path class="cls-3" d="M29,52.18c-2.3,0-4.67-1.3-7.67-3.82A53.84,53.84,0,0,1,6,28.39C4.49,24.78.87,16.33,1.62,9.8A6.69,6.69,0,0,1,4.56,4.68c2.66-1.74,6.94-1.83,12-.27C25,7,28.26,7.84,32.33,7.44h0A24.55,24.55,0,0,0,39.77,5c4.12-1.85,8-3.6,10.84.35,1.91,2.67,1.16,10.27-2,20.34-2.57,8.15-6.54,16-10.11,20.09C34.67,50.1,31.88,52.18,29,52.18ZM10,3.94A9.38,9.38,0,0,0,4.9,5.21,6.08,6.08,0,0,0,2.24,9.87c-.73,6.37,2.84,14.71,4.37,18.28A53.23,53.23,0,0,0,21.72,47.88c6.49,5.46,9.69,5,16.3-2.53,3.52-4,7.44-11.79,10-19.86,3.07-9.73,3.87-17.31,2.1-19.79-2.53-3.53-5.85-2-10.07-.14a25.11,25.11,0,0,1-7.64,2.5c-4.18.42-7.52-.45-16-3.05A22.11,22.11,0,0,0,10,3.94Z"/><path class="cls-4" d="M28.78,50.1c-2.39,0-4.89-1.23-8-3.65C13.55,40.79,8.58,34.71,6,28.36s-3.54-11.91-2.83-16A6.34,6.34,0,0,1,6,7.93c2.34-1.51,6-1.74,10.23-.64,7.18,1.85,10,2.44,13.51,1.85h0A32.59,32.59,0,0,0,37,6.72c4.23-1.79,7.88-3.33,10.43-.09,2,2.53,1.7,9.7-.76,19.17C44.19,35.47,40.3,42.05,37.5,45,34.22,48.41,31.57,50.1,28.78,50.1ZM11.29,7.26A9,9,0,0,0,6.38,8.48a5.7,5.7,0,0,0-2.53,4c-.69,4,.27,9.37,2.79,15.64s7.41,12.23,14.57,17.81c6.42,5,10,4.71,15.81-1.41,2.75-2.87,6.56-9.34,9-18.89C48.91,14.72,48.39,8.87,47,7c-2.24-2.85-5.51-1.47-9.65.29a33.75,33.75,0,0,1-7.43,2.46h0c-3.64.61-6.51,0-13.78-1.86A19.26,19.26,0,0,0,11.29,7.26Z"/><path class="cls-5" d="M28.69,48c-2.5,0-5.17-1.17-8.4-3.49C12.89,39.22,8,33.61,6,28.33c-.64-1.77-2.65-8-1.24-13.4C5.85,10.86,10,9.08,15.9,10.17s8.26,1.41,11.29.68h0a51.18,51.18,0,0,0,6.87-2.33c4.27-1.7,8-3.16,10.26-.6.81.91,3.26,4.9.49,18-2.49,11.81-6.64,16.72-8.31,18.28C33.77,46.76,31.32,48,28.69,48Zm-16-37.5c-3.84,0-6.47,1.61-7.23,4.57-1.36,5.21.59,11.26,1.22,13C8.56,33.25,13.4,38.74,20.7,44c6.35,4.56,10.22,4.49,15.33-.3,1.27-1.18,5.59-6,8.11-17.92,2.14-10.15,1.23-15.64-.34-17.39-2-2.2-5.29-.89-9.49.78a50.63,50.63,0,0,1-7,2.36h0c-3.16.76-5.69.42-11.58-.67A16.32,16.32,0,0,0,12.69,10.54Z"/><path class="cls-6" d="M28.79,46c-2.69,0-5.61-1.11-9-3.35C15.41,39.76,7.82,34.07,6,28.3a17.29,17.29,0,0,1,.35-10.82C7.59,14.38,11,12.72,15.52,13c4.22.3,6.49.36,9.09-.48h0c1.94-.62,3.75-1.3,5.49-2,5-1.88,8.95-3.36,11.06-1.41.92.85,3.79,4.6,1.76,16.83C41,37.56,37.45,41.87,35.5,43.42A10.63,10.63,0,0,1,28.79,46ZM14.38,13.72c-3.68,0-6.32,1.44-7.33,4a16.53,16.53,0,0,0-.33,10.33C8,32.2,12.78,37.15,20.18,42c6.16,4.06,10.47,4.29,14.87.81,1.51-1.19,5.22-5.22,7.16-16.94,1.56-9.44.23-14.55-1.54-16.18s-5.55-.23-10.31,1.56c-1.76.65-3.57,1.33-5.53,2h0c-2.72.87-5,.82-9.36.51C15.1,13.74,14.74,13.72,14.38,13.72Z"/><path class="cls-7" d="M29.24,44c-2.95,0-6.28-1.1-10-3.3S7.07,32.94,6,28.24c-.52-2.35.19-5.36,2-8.23a9.65,9.65,0,0,1,7.12-4.09A25.58,25.58,0,0,0,22,14.28h0C31.33,10.36,36.1,9.22,38,10.46c1.4.92,4.49,4.3,3.06,15.69C39.57,38,36.3,41.58,34.48,42.65A10.14,10.14,0,0,1,29.24,44ZM22.32,15a26,26,0,0,1-7.11,1.71,8.89,8.89,0,0,0-6.58,3.73C7,23.08,6.29,25.94,6.77,28.08c.68,3.06,5.5,7.55,12.9,12C25.48,43.56,30.33,44.2,34.09,42c1.7-1,4.77-4.4,6.19-15.95,1.42-11.27-1.73-14.3-2.73-15C35.47,9.71,27.86,12.64,22.32,15Z"/><path class="cls-8" d="M30.45,42.22a24.61,24.61,0,0,1-11.67-3.39C13,35.71,6.2,31,6,28.16H6c-.23-3.8,7.17-8.71,13.42-12.16,7.75-4.29,13.91-4.65,15.27-4.3.93.24,5.5,2.07,4.42,14.56-1,12-3.69,15.11-5.74,15.64A12.13,12.13,0,0,1,30.45,42.22ZM6.81,28.11c.13,2,5.2,6.16,12.34,10,7.66,4.15,12.69,3.34,14.05,3,1.18-.3,4.06-2.37,5.15-14.94,1-12.1-3.33-13.59-3.84-13.72-1.23-.32-7.23.1-14.69,4.22-8.43,4.66-13.17,8.82-13,11.42Z"/><path class="cls-8" d="M32.79,41.88c-1.47,0-2.48-1.88-3.72-4.19s-2.95-5.46-5.65-7.3c-3.36-2.29-8.34-1.71-12-1.28-2.44.29-4.21.5-5-.16a1,1,0,0,1-.36-.81c-.09-4,8.33-9.27,13.36-12,7.72-4.27,13.84-4.63,15.19-4.28.91.23,5.42,2,4.35,14.44C38,38,35.4,41.16,33.38,41.79A2.12,2.12,0,0,1,32.79,41.88ZM16.66,28.12a12.43,12.43,0,0,1,7.09,1.78c2.83,1.92,4.49,5,5.84,7.51s2.28,4.24,3.61,3.81c1.51-.47,4.2-3,5.24-15C39.49,14,35,12.51,34.53,12.38c-1.24-.32-7.28.1-14.76,4.23-8.35,4.61-13.11,8.81-13,11.52h0a.48.48,0,0,0,.16.38c.55.48,2.38.26,4.5,0A44.52,44.52,0,0,1,16.66,28.12Z"/><path class="cls-8" d="M32.76,41.91c-1.42,0-2.63-1.47-4.24-3.41a27,27,0,0,0-6.26-6C19,30.4,14.81,30.18,11.45,30c-3.08-.16-5.3-.27-5.35-1.86-.13-4,8.32-9.29,13.38-12.08,7.73-4.27,13.86-4.64,15.21-4.29.92.24,5.44,2.05,4.36,14.48-1,11.75-3.64,15-5.67,15.56A2.27,2.27,0,0,1,32.76,41.91Zm.79-29.59c-2.27,0-7.51.85-13.76,4.31-8.38,4.63-13.13,8.82-13,11.49h0c0,1,2.11,1.1,4.74,1.24,3.26.17,7.72.4,11.12,2.59A27.51,27.51,0,0,1,29,38.09c1.68,2,2.89,3.5,4.18,3.11,1.5-.45,4.18-3,5.21-15C39.46,14,35,12.54,34.53,12.4A4.45,4.45,0,0,0,33.55,12.32Z"/><path class="cls-8" d="M32.66,42c-1.52,0-3.18-1.29-5.54-3.1a65.66,65.66,0,0,0-6-4.24,33.36,33.36,0,0,0-9.31-3.39c-3.28-.82-5.65-1.42-5.71-3.07h0c-.17-3.8,7.19-8.68,13.38-12.11,7.74-4.27,13.88-4.63,15.24-4.28.92.23,5.45,2.05,4.38,14.5-1,11.82-3.66,15-5.69,15.58A2.58,2.58,0,0,1,32.66,42Zm.89-29.61c-2.27,0-7.51.86-13.75,4.31-8.4,4.64-13.15,8.82-13,11.47h0c0,1.14,2.32,1.71,5.19,2.43A33.58,33.58,0,0,1,21.45,34a63.46,63.46,0,0,1,6.1,4.29c2.56,2,4.25,3.27,5.64,2.87s4.16-3,5.2-15S35,12.56,34.52,12.43A3.75,3.75,0,0,0,33.55,12.34Z"/><path class="cls-8" d="M32.37,42c-2.62,0-6.78-2-12.43-5.28-2.21-1.27-4.53-2.35-6.58-3.3-4.19-2-7.21-3.37-7.31-5.27h0c-.2-3.8,7.18-8.69,13.4-12.13,7.75-4.28,13.89-4.64,15.25-4.29.93.24,5.48,2.06,4.41,14.53-1,11.89-3.68,15.05-5.72,15.61A4.06,4.06,0,0,1,32.37,42Zm1.18-29.64c-2.26,0-7.5.86-13.74,4.31-8.41,4.65-13.16,8.82-13,11.45h0C6.86,29.57,10,31,13.68,32.75c2.06,1,4.39,2,6.62,3.33,6.12,3.49,10.64,5.69,12.89,5.08,1.49-.41,4.14-2.89,5.18-15S35,12.58,34.52,12.45A4.27,4.27,0,0,0,33.55,12.36Z"/><path class="cls-8" d="M30.45,42.22a24.61,24.61,0,0,1-11.67-3.39C13,35.71,6.2,31,6,28.16H6c-.23-3.8,7.17-8.71,13.42-12.16,7.75-4.29,13.91-4.65,15.27-4.3.93.24,5.5,2.07,4.42,14.56-1,12-3.69,15.11-5.74,15.64A12.13,12.13,0,0,1,30.45,42.22ZM6.81,28.11c.13,2,5.2,6.16,12.34,10,7.66,4.15,12.69,3.34,14.05,3,1.18-.3,4.06-2.37,5.15-14.94,1-12.1-3.33-13.59-3.84-13.72-1.23-.32-7.23.1-14.69,4.22-8.43,4.66-13.17,8.82-13,11.42Z"/><polygon class="cls-9" points="66.03 16.8 65.24 16.8 65.24 12.24 66.03 12.24 66.03 11.35 63.36 11.35 63.36 12.24 64.16 12.24 64.16 16.8 63.36 16.8 63.36 17.69 66.03 17.69 66.03 16.8"/><polygon class="cls-10" points="71.43 15.89 69.02 11.35 67.55 11.35 67.55 17.69 68.58 17.69 68.58 12.68 71.24 17.69 72.46 17.69 72.46 11.35 71.43 11.35 71.43 15.89"/><path class="cls-11" d="M80.38,11.35H79.11L76.8,17.69h1.11l.6-1.69h2.43l.59,1.69h1.16ZM80.59,15H78.85l.87-2.43Z"/><polygon class="cls-12" points="69.67 25.51 65.11 25.51 65.11 21.62 63.4 21.62 63.4 31.93 65.11 31.93 65.11 27.07 69.67 27.07 69.67 31.93 71.38 31.93 71.38 21.62 69.67 21.62 69.67 25.51"/><polygon class="cls-13" points="74.33 31.93 81.26 31.93 81.26 30.36 76.05 30.36 76.05 27.07 81.26 27.07 81.26 25.51 76.05 25.51 76.05 23.18 81.26 23.18 81.26 21.62 74.33 21.62 74.33 31.93"/><path class="cls-14" d="M88.19,21.62h-2L82.4,31.93h1.76l1-2.76h4l1,2.76h1.82l-3.7-10.18Zm.41,6H85.67l1.47-4.09Z"/><path class="cls-15" d="M100,26.43a3.17,3.17,0,0,0,.58-1.92,2.88,2.88,0,0,0-.33-1.41,2.76,2.76,0,0,0-.91-.92,3.4,3.4,0,0,0-1.15-.44,8.29,8.29,0,0,0-1.54-.12h-3V31.93h1.71V28h1.57l3.32,3.94h2.23l-3.83-4.46A3.42,3.42,0,0,0,100,26.43Zm-1.2-1.82a2.3,2.3,0,0,1-.13.85,1.53,1.53,0,0,1-.39.57,1.59,1.59,0,0,1-.71.36,4.53,4.53,0,0,1-1,.1H95.36V23.14h1.36a4.59,4.59,0,0,1,.89.08,1.56,1.56,0,0,1,.61.24,1.17,1.17,0,0,1,.42.47A1.59,1.59,0,0,1,98.77,24.61Z"/><polygon class="cls-16" points="102.08 23.18 105.63 23.18 105.63 31.93 107.34 31.93 107.34 23.18 110.89 23.18 110.89 21.62 102.08 21.62 102.08 23.18"/><path class="cls-17" d="M118.46,26a2.6,2.6,0,0,0,.68-.64,2.24,2.24,0,0,0,.39-1.32,2.41,2.41,0,0,0-.27-1.17,2,2,0,0,0-.87-.82,3.62,3.62,0,0,0-1.1-.35,11.38,11.38,0,0,0-1.65-.08H112.5V31.93h3.72a7.08,7.08,0,0,0,1.75-.19,3.81,3.81,0,0,0,1.3-.66,2.84,2.84,0,0,0,.81-1,3.16,3.16,0,0,0,.3-1.4,2.74,2.74,0,0,0-.63-1.84A2.9,2.9,0,0,0,118.46,26Zm-4.24,1.11h1.87c.43,0,.79,0,1.09.05a2,2,0,0,1,.71.2,1.37,1.37,0,0,1,.57.51,2.06,2.06,0,0,1,.15.87,1.66,1.66,0,0,1-.15.76A1.39,1.39,0,0,1,118,30a1.89,1.89,0,0,1-.83.3,8.58,8.58,0,0,1-1.38.09h-1.55Zm3.43-2.22a.91.91,0,0,1-.36.42,1.69,1.69,0,0,1-.61.24,5.87,5.87,0,0,1-1,.06h-1.51V23.14h1.37c.43,0,.8,0,1.09,0a1.65,1.65,0,0,1,.68.2.77.77,0,0,1,.31.31,1.3,1.3,0,0,1,.1.52A1.76,1.76,0,0,1,117.65,24.89Z"/><polygon class="cls-18" points="122.54 31.93 129.47 31.93 129.47 30.36 124.25 30.36 124.25 27.07 129.47 27.07 129.47 25.51 124.25 25.51 124.25 23.18 129.47 23.18 129.47 21.62 122.54 21.62 122.54 31.93"/><path class="cls-19" d="M136.39,21.62h-2L130.6,31.93h1.76l1-2.76h4l1,2.76h1.83l-3.71-10.18Zm.41,6h-2.92l1.46-4.09Z"/><polygon class="cls-20" points="139.72 21.62 139.72 23.18 143.27 23.18 143.27 31.93 144.98 31.93 144.98 23.18 148.52 23.18 148.52 21.62 139.72 21.62"/></g></g></svg>